<?xml version="1.0" encoding="UTF-8"?>
<!DOCTYPE svg PUBLIC "-//W3C//DTD SVG 1.1//EN" "http://www.w3.org/Graphics/SVG/1.1/DTD/svg11.dtd">
<!-- Creator: CorelDRAW 2021.5 -->
<svg xmlns="http://www.w3.org/2000/svg" xml:space="preserve" width="1058px" height="437px" version="1.1" style="shape-rendering:geometricPrecision; text-rendering:geometricPrecision; image-rendering:optimizeQuality; fill-rule:evenodd; clip-rule:evenodd"
viewBox="0 0 553.65 228.69"
 xmlns:xlink="http://www.w3.org/1999/xlink"
 xmlns:xodm="http://www.corel.com/coreldraw/odm/2003">
 <defs>
  <style type="text/css">
   <![CDATA[
    .fil2 {fill:#01628D}
    .fil4 {fill:#898989;fill-rule:nonzero}
    .fil1 {fill:#898989;fill-rule:nonzero}
    .fil0 {fill:#EF7F1A;fill-rule:nonzero}
    .fil3 {fill:#01628D;fill-rule:nonzero}
   ]]>
  </style>
 </defs>
 <g id="Layer_x0020_1">
  <metadata id="CorelCorpID_0Corel-Layer"/>
  <g id="_1646354522832">
   <g>
    <path class="fil0" d="M304.65 82.45l19.67 5.93c-1.32,5.51 -3.4,10.12 -6.25,13.81 -2.84,3.7 -6.36,6.48 -10.58,8.36 -4.21,1.88 -9.57,2.82 -16.07,2.82 -7.91,0 -14.35,-1.15 -19.37,-3.43 -5,-2.3 -9.31,-6.33 -12.94,-12.1 -3.63,-5.76 -5.46,-13.16 -5.46,-22.15 0,-12 3.2,-21.22 9.58,-27.68 6.41,-6.44 15.45,-9.66 27.14,-9.66 9.14,0 16.34,1.84 21.58,5.54 5.22,3.7 9.12,9.38 11.66,17.05l-19.77 4.38c-0.69,-2.2 -1.42,-3.81 -2.18,-4.82 -1.27,-1.71 -2.81,-3.02 -4.61,-3.94 -1.83,-0.93 -3.86,-1.38 -6.1,-1.38 -5.11,0 -9.01,2.04 -11.71,6.11 -2.05,3.03 -3.08,7.79 -3.08,14.27 0,8.04 1.22,13.53 3.67,16.52 2.45,2.98 5.88,4.46 10.3,4.46 4.3,0 7.54,-1.2 9.74,-3.61 2.19,-2.4 3.78,-5.9 4.78,-10.48zm96.5 29.71l-25.26 0 -8.82 -18.69c-2.05,-4.45 -3.63,-7.22 -4.78,-8.33 -1.14,-1.12 -2.72,-1.68 -4.73,-1.68l0 28.7 -22.41 0 0 -72.6 22.41 0 0 27.89c1.94,-0.11 3.46,-0.8 4.54,-2.08 1.1,-1.29 2.79,-4.99 5.1,-11.09 1.69,-4.51 3.38,-7.75 5.11,-9.71 1.7,-1.96 4.49,-3.37 8.34,-4.23 3.87,-0.86 9.92,-1.28 18.17,-1.28l0 15.31 -1.13 0c-3.84,0 -6.68,0.72 -8.52,2.18 -1.84,1.45 -3.36,3.8 -4.54,7.06 -1.2,3.26 -2.47,5.68 -3.84,7.28 -1.37,1.61 -3.24,2.89 -5.61,3.84 3.23,1.06 6.05,2.89 8.45,5.47 2.41,2.6 4.97,6.64 7.67,12.12l9.85 19.84zm1.22 -72.6l24.33 0 10.09 29.91 9.88 -29.91 22.81 0 -23.79 56.07c-1.94,4.51 -3.65,7.89 -5.1,10.1 -1.45,2.24 -3.6,4.06 -6.46,5.5 -2.85,1.43 -6.77,2.14 -11.76,2.14 -2.63,0 -7.18,-0.37 -13.61,-1.13l0 -14.99c3.8,0.41 6.57,0.61 8.31,0.61 5.19,0 8.35,-1.93 9.46,-5.8l-24.16 -52.5zm151.04 88.41l-18.04 0 0 -15.81 -46.33 0 0 15.81 -18.05 0 0 -32.54 7.48 0c4.21,-11.73 6.31,-24.94 6.31,-39.68l0 -16.19 60.83 0 0 55.87 7.8 0 0 32.54zm-30.21 -32.54l0 -38.02 -18.05 0 0 0.94c0,10.02 -1.68,22.39 -5.08,37.08l23.13 0z"/>
    <path class="fil1" d="M274.73 148.55l2.8 0.7c-0.58,2.3 -1.63,4.04 -3.15,5.24 -1.52,1.2 -3.37,1.81 -5.57,1.81 -2.27,0 -4.11,-0.46 -5.53,-1.39 -1.43,-0.92 -2.51,-2.26 -3.25,-4.02 -0.74,-1.75 -1.11,-3.63 -1.11,-5.65 0,-2.19 0.41,-4.1 1.25,-5.74 0.84,-1.63 2.04,-2.88 3.58,-3.73 1.55,-0.84 3.25,-1.27 5.11,-1.27 2.11,0 3.88,0.54 5.31,1.61 1.44,1.08 2.44,2.59 3.01,4.53l-2.74 0.65c-0.49,-1.53 -1.2,-2.65 -2.13,-3.35 -0.93,-0.7 -2.09,-1.05 -3.5,-1.05 -1.62,0 -2.97,0.39 -4.06,1.16 -1.08,0.78 -1.85,1.82 -2.28,3.13 -0.45,1.31 -0.67,2.66 -0.67,4.05 0,1.79 0.26,3.36 0.78,4.69 0.52,1.34 1.33,2.34 2.43,3 1.1,0.66 2.29,0.99 3.57,0.99 1.56,0 2.88,-0.45 3.96,-1.35 1.08,-0.9 1.81,-2.24 2.19,-4.01zm5.93 -7.89l2.59 0 0 11.66 7.2 -11.66 2.78 0 0 15.28 -2.59 0 0 -11.58 -7.19 11.58 -2.79 0 0 -15.28zm26.43 9.69l2.54 0.35c-0.28,1.74 -0.99,3.1 -2.13,4.09 -1.15,0.99 -2.56,1.48 -4.22,1.48 -2.09,0 -3.76,-0.68 -5.03,-2.05 -1.27,-1.36 -1.91,-3.32 -1.91,-5.86 0,-1.65 0.28,-3.09 0.82,-4.32 0.55,-1.24 1.38,-2.16 2.5,-2.78 1.11,-0.62 2.32,-0.93 3.64,-0.93 1.65,0 3.01,0.42 4.06,1.26 1.06,0.84 1.74,2.03 2.03,3.57l-2.5 0.39c-0.24,-1.03 -0.66,-1.8 -1.28,-2.32 -0.61,-0.51 -1.34,-0.77 -2.21,-0.77 -1.3,0 -2.36,0.46 -3.18,1.39 -0.82,0.94 -1.23,2.41 -1.23,4.44 0,2.05 0.4,3.54 1.18,4.46 0.79,0.93 1.82,1.4 3.08,1.4 1.02,0 1.87,-0.31 2.55,-0.93 0.68,-0.62 1.11,-1.58 1.29,-2.87zm3.39 -9.69l12.37 0 0 2.15 -4.89 0 0 13.13 -2.59 0 0 -13.13 -4.89 0 0 -2.15zm24.94 10.34l2.68 0.35c-0.42,1.56 -1.2,2.77 -2.34,3.63 -1.13,0.86 -2.59,1.29 -4.36,1.29 -2.23,0 -3.99,-0.69 -5.3,-2.06 -1.31,-1.37 -1.96,-3.3 -1.96,-5.78 0,-2.56 0.66,-4.56 1.98,-5.97 1.32,-1.42 3.03,-2.13 5.14,-2.13 2.04,0 3.7,0.7 4.99,2.09 1.29,1.39 1.94,3.34 1.94,5.86 0,0.15 -0.01,0.38 -0.02,0.68l-11.38 0c0.1,1.68 0.57,2.96 1.43,3.85 0.84,0.89 1.91,1.34 3.18,1.34 0.95,0 1.76,-0.25 2.43,-0.75 0.67,-0.5 1.2,-1.3 1.59,-2.4zm-8.48 -4.16l8.51 0c-0.11,-1.28 -0.44,-2.24 -0.98,-2.89 -0.82,-0.99 -1.89,-1.49 -3.2,-1.49 -1.19,0 -2.18,0.39 -2.99,1.19 -0.81,0.79 -1.25,1.86 -1.34,3.19zm14.52 -6.18l3.99 0 4.04 12.23 4.47 -12.23 3.7 0 0 15.28 -2.59 0 0 -12.3 -4.5 12.3 -2.32 0 -4.25 -12.89 0 12.89 -2.54 0 0 -15.28zm30.15 13.37c-0.97,0.82 -1.89,1.39 -2.78,1.73 -0.89,0.34 -1.84,0.51 -2.86,0.51 -1.68,0 -2.97,-0.41 -3.88,-1.23 -0.9,-0.81 -1.35,-1.86 -1.35,-3.13 0,-0.75 0.17,-1.43 0.51,-2.05 0.34,-0.62 0.79,-1.11 1.34,-1.48 0.55,-0.37 1.17,-0.66 1.86,-0.85 0.52,-0.13 1.29,-0.26 2.31,-0.39 2.09,-0.24 3.64,-0.54 4.63,-0.89 0.01,-0.35 0.01,-0.57 0.01,-0.67 0,-1.05 -0.25,-1.79 -0.74,-2.22 -0.66,-0.59 -1.65,-0.88 -2.95,-0.88 -1.22,0 -2.13,0.22 -2.71,0.65 -0.58,0.42 -1.01,1.18 -1.29,2.27l-2.53 -0.35c0.23,-1.09 0.61,-1.97 1.14,-2.63 0.53,-0.67 1.3,-1.18 2.3,-1.55 0.99,-0.35 2.16,-0.54 3.47,-0.54 1.31,0 2.37,0.16 3.19,0.47 0.82,0.31 1.42,0.69 1.8,1.15 0.39,0.47 0.66,1.06 0.81,1.77 0.09,0.44 0.13,1.24 0.13,2.38l0 3.44c0,2.4 0.06,3.92 0.16,4.56 0.11,0.64 0.32,1.25 0.64,1.84l-2.71 0c-0.26,-0.54 -0.43,-1.18 -0.5,-1.91zm-0.21 -5.74c-0.94,0.38 -2.36,0.7 -4.24,0.97 -1.07,0.15 -1.83,0.32 -2.27,0.51 -0.44,0.2 -0.78,0.48 -1.02,0.84 -0.24,0.37 -0.36,0.77 -0.36,1.23 0,0.68 0.26,1.25 0.78,1.71 0.53,0.46 1.29,0.69 2.3,0.69 1,0 1.89,-0.22 2.67,-0.66 0.77,-0.43 1.35,-1.02 1.71,-1.77 0.28,-0.59 0.42,-1.45 0.42,-2.58l0.01 -0.94zm14.76 -7.63l2.59 0 0 6.6c0.82,0 1.4,-0.16 1.73,-0.48 0.33,-0.31 0.82,-1.23 1.47,-2.76 0.51,-1.21 0.92,-2 1.23,-2.38 0.32,-0.39 0.69,-0.65 1.1,-0.78 0.42,-0.13 1.08,-0.2 1.99,-0.2l0.52 0 0 2.13 -0.72 -0.01c-0.69,0 -1.12,0.1 -1.32,0.3 -0.2,0.21 -0.51,0.84 -0.92,1.89 -0.39,1 -0.75,1.69 -1.08,2.07 -0.32,0.39 -0.83,0.74 -1.51,1.06 1.11,0.29 2.21,1.33 3.29,3.11l2.85 4.73 -2.85 0 -2.8 -4.72c-0.57,-0.96 -1.06,-1.58 -1.48,-1.89 -0.42,-0.3 -0.92,-0.45 -1.5,-0.45l0 7.06 -2.59 0 0 -15.28zm12.27 7.64c0,-2.82 0.78,-4.91 2.36,-6.27 1.31,-1.13 2.91,-1.7 4.8,-1.7 2.1,0 3.82,0.69 5.15,2.07 1.33,1.37 2,3.27 2,5.69 0,1.96 -0.29,3.5 -0.88,4.62 -0.59,1.13 -1.45,2 -2.58,2.63 -1.12,0.62 -2.36,0.93 -3.69,0.93 -2.14,0 -3.86,-0.68 -5.19,-2.05 -1.32,-1.37 -1.97,-3.35 -1.97,-5.92zm2.65 0.01c0,1.95 0.42,3.41 1.28,4.38 0.86,0.97 1.93,1.46 3.23,1.46 1.29,0 2.36,-0.49 3.22,-1.47 0.85,-0.97 1.28,-2.46 1.28,-4.46 0,-1.88 -0.43,-3.31 -1.29,-4.28 -0.86,-0.97 -1.93,-1.46 -3.21,-1.46 -1.3,0 -2.37,0.49 -3.23,1.45 -0.86,0.97 -1.28,2.43 -1.28,4.38zm14.7 -7.65l2.59 0 0 6.36 7.19 0 0 -6.36 2.59 0 0 15.28 -2.59 0 0 -6.77 -7.19 0 0 6.77 -2.59 0 0 -15.28zm14.91 0l12.36 0 0 2.15 -4.88 0 0 13.13 -2.6 0 0 -13.13 -4.88 0 0 -2.15zm14.84 21.14l0 -21.14 2.35 0 0 2.01c0.56,-0.78 1.19,-1.36 1.89,-1.75 0.7,-0.39 1.55,-0.59 2.54,-0.59 1.31,0 2.46,0.34 3.45,1.01 1,0.67 1.75,1.62 2.26,2.83 0.51,1.23 0.76,2.56 0.76,4.02 0,1.55 -0.28,2.96 -0.84,4.21 -0.56,1.25 -1.37,2.2 -2.44,2.87 -1.07,0.66 -2.19,1 -3.37,1 -0.86,0 -1.64,-0.18 -2.32,-0.55 -0.69,-0.36 -1.25,-0.82 -1.69,-1.37l0 7.45 -2.59 0zm2.35 -13.41c0,1.96 0.4,3.41 1.19,4.35 0.8,0.94 1.76,1.41 2.89,1.41 1.15,0 2.13,-0.49 2.94,-1.46 0.82,-0.97 1.23,-2.47 1.23,-4.51 0,-1.94 -0.4,-3.4 -1.2,-4.36 -0.8,-0.97 -1.75,-1.45 -2.86,-1.45 -1.1,0 -2.07,0.51 -2.91,1.54 -0.85,1.03 -1.28,2.52 -1.28,4.48zm13.06 -0.09c0,-2.82 0.78,-4.91 2.36,-6.27 1.31,-1.13 2.91,-1.7 4.8,-1.7 2.1,0 3.82,0.69 5.15,2.07 1.33,1.37 2,3.27 2,5.69 0,1.96 -0.29,3.5 -0.88,4.62 -0.59,1.13 -1.45,2 -2.58,2.63 -1.12,0.62 -2.36,0.93 -3.69,0.93 -2.14,0 -3.87,-0.68 -5.19,-2.05 -1.32,-1.37 -1.97,-3.35 -1.97,-5.92zm2.65 0.01c0,1.95 0.42,3.41 1.28,4.38 0.86,0.97 1.93,1.46 3.23,1.46 1.29,0 2.36,-0.49 3.22,-1.47 0.85,-0.97 1.28,-2.46 1.28,-4.46 0,-1.88 -0.43,-3.31 -1.29,-4.28 -0.86,-0.97 -1.93,-1.46 -3.21,-1.46 -1.3,0 -2.37,0.49 -3.23,1.45 -0.86,0.97 -1.28,2.43 -1.28,4.38zm15.32 -7.65l12.04 0 0 15.27 -2.59 0 0 -13.12 -6.86 0 0 7.6c0,1.77 -0.06,2.94 -0.17,3.51 -0.12,0.57 -0.44,1.06 -0.95,1.48 -0.52,0.42 -1.27,0.63 -2.24,0.63 -0.61,0 -1.31,-0.04 -2.09,-0.11l0 -2.16 1.13 0c0.54,0 0.92,-0.05 1.15,-0.16 0.23,-0.11 0.39,-0.29 0.46,-0.53 0.08,-0.24 0.12,-1.02 0.12,-2.34l0 -10.07zm27.96 0l0 15.28 -2.59 0 0 -5.95 -1.49 0c-0.91,0 -1.59,0.12 -2.04,0.36 -0.44,0.24 -1.1,0.99 -1.95,2.27l-2.28 3.32 -3.21 0 2.8 -4.1c0.85,-1.26 1.7,-1.96 2.55,-2.12 -1.47,-0.21 -2.57,-0.74 -3.29,-1.6 -0.72,-0.87 -1.08,-1.87 -1.08,-2.99 0,-1.33 0.47,-2.4 1.41,-3.23 0.94,-0.83 2.3,-1.24 4.07,-1.24l7.1 0zm-2.59 2.15l-3.68 0c-1.54,0 -2.54,0.24 -2.99,0.72 -0.44,0.48 -0.66,1.05 -0.66,1.69 0,0.91 0.32,1.58 0.98,2.01 0.65,0.43 1.82,0.64 3.49,0.64l2.86 0 0 -5.06zm14.68 -2.15l2.59 0 0 11.66 7.2 -11.66 2.78 0 0 15.28 -2.59 0 0 -11.58 -7.19 11.58 -2.79 0 0 -15.28zm-259.69 49.37l-0.29 -2.4c0.57,0.16 1.06,0.23 1.48,0.23 0.58,0 1.04,-0.09 1.38,-0.29 0.35,-0.19 0.64,-0.46 0.86,-0.8 0.16,-0.26 0.42,-0.9 0.79,-1.93 0.05,-0.15 0.12,-0.36 0.23,-0.64l-5.8 -15.33 2.76 0 3.19 8.82c0.42,1.12 0.79,2.3 1.12,3.53 0.3,-1.16 0.65,-2.31 1.06,-3.44l3.26 -8.91 2.59 0 -5.78 15.55c-0.62,1.67 -1.11,2.82 -1.46,3.45 -0.46,0.85 -0.99,1.48 -1.58,1.87 -0.6,0.4 -1.31,0.6 -2.14,0.6 -0.5,0 -1.06,-0.11 -1.67,-0.31zm14.84 -21.16l12.08 0 0 15.28 -2.59 0 0 -13.13 -6.89 0 0 13.13 -2.6 0 0 -15.28zm15.95 21.14l0 -21.14 2.36 0 0 2.01c0.55,-0.78 1.18,-1.36 1.88,-1.75 0.7,-0.39 1.55,-0.59 2.54,-0.59 1.31,0 2.46,0.34 3.46,1.01 0.99,0.67 1.74,1.62 2.25,2.83 0.51,1.22 0.76,2.56 0.76,4.02 0,1.55 -0.28,2.96 -0.84,4.21 -0.55,1.25 -1.37,2.2 -2.44,2.87 -1.06,0.66 -2.19,1 -3.37,1 -0.86,0 -1.64,-0.18 -2.32,-0.55 -0.69,-0.36 -1.25,-0.82 -1.69,-1.37l0 7.45 -2.59 0zm2.36 -13.41c0,1.96 0.4,3.41 1.19,4.35 0.79,0.94 1.75,1.41 2.88,1.41 1.15,0 2.13,-0.49 2.95,-1.46 0.82,-0.97 1.22,-2.47 1.22,-4.51 0,-1.95 -0.39,-3.4 -1.19,-4.37 -0.8,-0.96 -1.76,-1.44 -2.87,-1.44 -1.1,0 -2.07,0.51 -2.91,1.54 -0.85,1.03 -1.27,2.52 -1.27,4.48zm24 5.64c-0.96,0.82 -1.88,1.39 -2.77,1.73 -0.89,0.34 -1.84,0.51 -2.87,0.51 -1.67,0 -2.96,-0.41 -3.87,-1.23 -0.9,-0.81 -1.35,-1.86 -1.35,-3.13 0,-0.75 0.17,-1.43 0.51,-2.05 0.34,-0.62 0.79,-1.11 1.34,-1.48 0.55,-0.37 1.17,-0.66 1.86,-0.85 0.51,-0.13 1.28,-0.26 2.31,-0.39 2.09,-0.24 3.64,-0.54 4.62,-0.89 0.01,-0.35 0.02,-0.58 0.02,-0.67 0,-1.05 -0.25,-1.79 -0.74,-2.22 -0.66,-0.59 -1.65,-0.88 -2.95,-0.88 -1.22,0 -2.13,0.22 -2.71,0.65 -0.58,0.42 -1.01,1.18 -1.29,2.27l-2.53 -0.35c0.23,-1.09 0.61,-1.97 1.14,-2.63 0.53,-0.67 1.29,-1.18 2.3,-1.55 0.99,-0.35 2.15,-0.54 3.47,-0.54 1.31,0 2.37,0.16 3.19,0.47 0.82,0.3 1.42,0.69 1.8,1.15 0.38,0.47 0.66,1.06 0.81,1.77 0.09,0.44 0.13,1.24 0.13,2.38l0 3.44c0,2.4 0.05,3.91 0.16,4.56 0.1,0.64 0.32,1.25 0.64,1.84l-2.71 0c-0.26,-0.54 -0.43,-1.18 -0.51,-1.91zm-0.2 -5.74c-0.94,0.38 -2.36,0.7 -4.24,0.97 -1.07,0.15 -1.83,0.32 -2.27,0.51 -0.44,0.19 -0.78,0.47 -1.02,0.84 -0.24,0.37 -0.36,0.77 -0.36,1.23 0,0.68 0.26,1.25 0.78,1.71 0.53,0.45 1.29,0.69 2.3,0.69 0.99,0 1.88,-0.22 2.66,-0.66 0.78,-0.43 1.35,-1.02 1.72,-1.77 0.28,-0.59 0.41,-1.45 0.41,-2.58l0.02 -0.94zm6.6 -7.63l5.96 0c1.47,0 2.56,0.12 3.27,0.37 0.72,0.24 1.33,0.69 1.84,1.34 0.51,0.66 0.77,1.44 0.77,2.35 0,0.73 -0.15,1.37 -0.45,1.91 -0.31,0.55 -0.76,1 -1.37,1.37 0.72,0.24 1.31,0.68 1.79,1.34 0.47,0.65 0.71,1.43 0.71,2.33 -0.1,1.45 -0.62,2.53 -1.55,3.22 -0.94,0.7 -2.31,1.05 -4.09,1.05l-6.88 0 0 -15.28zm2.59 6.45l2.75 0c1.1,0 1.85,-0.06 2.26,-0.17 0.41,-0.12 0.78,-0.35 1.1,-0.71 0.33,-0.34 0.49,-0.77 0.49,-1.26 0,-0.81 -0.29,-1.37 -0.85,-1.69 -0.57,-0.32 -1.54,-0.47 -2.92,-0.47l-2.83 0 0 4.3zm0 6.71l3.4 0c1.47,0 2.47,-0.17 3.02,-0.51 0.54,-0.34 0.83,-0.93 0.86,-1.76 0,-0.49 -0.16,-0.95 -0.47,-1.36 -0.32,-0.42 -0.74,-0.69 -1.24,-0.79 -0.51,-0.12 -1.32,-0.17 -2.44,-0.17l-3.13 0 0 4.59zm13.65 -13.16l12.04 0 0 15.27 -2.59 0 0 -13.12 -6.86 0 0 7.6c0,1.77 -0.06,2.94 -0.17,3.51 -0.12,0.57 -0.43,1.06 -0.95,1.48 -0.52,0.42 -1.27,0.63 -2.24,0.63 -0.61,0 -1.3,-0.04 -2.09,-0.11l0 -2.16 1.14 0c0.53,0 0.91,-0.05 1.14,-0.16 0.23,-0.11 0.39,-0.29 0.47,-0.53 0.07,-0.24 0.11,-1.02 0.11,-2.34l0 -10.07zm26.34 10.34l2.68 0.35c-0.42,1.55 -1.2,2.77 -2.33,3.63 -1.14,0.86 -2.6,1.29 -4.37,1.29 -2.23,0 -3.99,-0.69 -5.3,-2.06 -1.3,-1.37 -1.96,-3.3 -1.96,-5.78 0,-2.56 0.66,-4.56 1.98,-5.97 1.32,-1.42 3.03,-2.13 5.14,-2.13 2.04,0 3.7,0.7 4.99,2.09 1.29,1.38 1.94,3.34 1.94,5.86 0,0.15 0,0.38 -0.01,0.68l-11.39 0c0.1,1.68 0.57,2.96 1.43,3.85 0.85,0.89 1.91,1.34 3.18,1.34 0.95,0 1.76,-0.25 2.43,-0.75 0.67,-0.51 1.2,-1.31 1.59,-2.4zm-8.48 -4.16l8.51 0c-0.11,-1.28 -0.44,-2.25 -0.98,-2.89 -0.82,-0.99 -1.89,-1.5 -3.2,-1.5 -1.18,0 -2.18,0.4 -2.99,1.2 -0.81,0.79 -1.25,1.86 -1.34,3.19zm14.44 -6.18l2.59 0 0 6.36 7.18 0 0 -6.36 2.6 0 0 15.28 -2.6 0 0 -6.77 -7.18 0 0 6.77 -2.59 0 0 -15.28zm16.26 0l2.59 0 0 11.66 7.2 -11.66 2.78 0 0 15.28 -2.59 0 0 -11.58 -7.19 11.58 -2.79 0 0 -15.28zm28.5 0l0 15.28 -2.59 0 0 -5.95 -1.5 0c-0.91,0 -1.58,0.12 -2.03,0.36 -0.45,0.24 -1.1,0.99 -1.96,2.27l-2.28 3.32 -3.21 0 2.8 -4.1c0.86,-1.26 1.71,-1.96 2.56,-2.13 -1.48,-0.2 -2.58,-0.73 -3.29,-1.6 -0.72,-0.86 -1.08,-1.86 -1.08,-2.98 0,-1.33 0.47,-2.41 1.41,-3.23 0.93,-0.83 2.29,-1.24 4.07,-1.24l7.1 0zm-2.59 2.15l-3.69 0c-1.54,0 -2.53,0.24 -2.98,0.72 -0.45,0.48 -0.67,1.04 -0.67,1.69 0,0.91 0.33,1.58 0.99,2.01 0.65,0.43 1.81,0.64 3.48,0.64l2.87 0 0 -5.06zm16.7 -2.15l10.66 0 0 13.16 1.65 0 0 6.45 -2.12 0 0 -4.33 -12.04 0 0 4.33 -2.12 0 0 -6.45 1.35 0c1.83,-2.48 2.7,-6.86 2.62,-13.16zm2.15 2.15c-0.19,4.96 -0.95,8.63 -2.29,11.01l8.21 0 0 -11.01 -5.92 0zm12.03 5.49c0,-2.82 0.79,-4.91 2.37,-6.27 1.31,-1.13 2.91,-1.7 4.8,-1.7 2.1,0 3.81,0.69 5.15,2.07 1.33,1.37 2,3.26 2,5.68 0,1.97 -0.3,3.51 -0.89,4.63 -0.59,1.13 -1.44,2 -2.57,2.62 -1.13,0.63 -2.36,0.94 -3.69,0.94 -2.14,0 -3.87,-0.69 -5.19,-2.05 -1.32,-1.37 -1.98,-3.35 -1.98,-5.92zm2.65 0.01c0,1.95 0.43,3.41 1.29,4.38 0.85,0.97 1.93,1.46 3.23,1.46 1.29,0 2.36,-0.49 3.22,-1.47 0.85,-0.97 1.28,-2.46 1.28,-4.46 0,-1.88 -0.44,-3.31 -1.29,-4.28 -0.86,-0.97 -1.93,-1.46 -3.21,-1.46 -1.3,0 -2.38,0.48 -3.23,1.45 -0.86,0.97 -1.29,2.43 -1.29,4.38zm24.69 2.04l2.53 0.35c-0.28,1.74 -0.98,3.1 -2.13,4.09 -1.14,0.99 -2.55,1.48 -4.21,1.48 -2.09,0 -3.77,-0.69 -5.04,-2.05 -1.27,-1.36 -1.9,-3.32 -1.9,-5.86 0,-1.65 0.27,-3.09 0.82,-4.32 0.54,-1.24 1.37,-2.16 2.49,-2.78 1.12,-0.62 2.33,-0.93 3.65,-0.93 1.65,0 3.01,0.42 4.06,1.26 1.06,0.84 1.73,2.03 2.03,3.57l-2.51 0.39c-0.24,-1.03 -0.66,-1.8 -1.27,-2.32 -0.61,-0.52 -1.35,-0.78 -2.21,-0.78 -1.31,0 -2.37,0.47 -3.19,1.4 -0.81,0.94 -1.22,2.41 -1.22,4.44 0,2.05 0.39,3.54 1.18,4.46 0.79,0.93 1.81,1.4 3.08,1.4 1.02,0 1.87,-0.31 2.54,-0.94 0.69,-0.61 1.12,-1.57 1.3,-2.86zm3.39 -9.69l12.37 0 0 2.15 -4.89 0 0 13.13 -2.59 0 0 -13.13 -4.89 0 0 -2.15zm15.05 21.16l-0.29 -2.4c0.57,0.16 1.06,0.23 1.48,0.23 0.58,0 1.04,-0.09 1.38,-0.29 0.35,-0.19 0.64,-0.46 0.86,-0.8 0.16,-0.26 0.42,-0.9 0.79,-1.93 0.05,-0.15 0.12,-0.36 0.23,-0.64l-5.8 -15.33 2.76 0 3.19 8.82c0.42,1.12 0.79,2.3 1.12,3.53 0.3,-1.16 0.65,-2.31 1.06,-3.44l3.26 -8.91 2.59 0 -5.78 15.55c-0.62,1.67 -1.11,2.82 -1.45,3.45 -0.47,0.85 -1,1.48 -1.59,1.87 -0.6,0.4 -1.31,0.6 -2.14,0.6 -0.5,0 -1.06,-0.11 -1.67,-0.31zm14.84 -21.16l12.08 0 0 15.28 -2.59 0 0 -13.13 -6.89 0 0 13.13 -2.6 0 0 -15.28zm14.98 7.64c0,-2.82 0.79,-4.91 2.36,-6.27 1.31,-1.13 2.92,-1.7 4.81,-1.7 2.09,0 3.81,0.69 5.15,2.07 1.33,1.37 1.99,3.26 1.99,5.68 0,1.97 -0.29,3.51 -0.88,4.63 -0.59,1.13 -1.45,2 -2.58,2.62 -1.12,0.63 -2.35,0.94 -3.68,0.94 -2.14,0 -3.87,-0.69 -5.19,-2.05 -1.32,-1.37 -1.98,-3.35 -1.98,-5.92zm2.65 0.01c0,1.95 0.43,3.41 1.28,4.38 0.86,0.97 1.94,1.46 3.24,1.46 1.28,0 2.35,-0.49 3.21,-1.47 0.86,-0.97 1.28,-2.46 1.28,-4.46 0,-1.88 -0.43,-3.31 -1.29,-4.28 -0.86,-0.97 -1.93,-1.46 -3.2,-1.46 -1.3,0 -2.38,0.48 -3.24,1.45 -0.85,0.97 -1.28,2.43 -1.28,4.38zm14.79 -7.65l3.99 0 4.04 12.23 4.47 -12.23 3.7 0 0 15.28 -2.59 0 0 -12.3 -4.5 12.3 -2.32 0 -4.26 -12.89 0 12.89 -2.53 0 0 -15.28z"/>
   </g>
   <g>
    <path class="fil2" d="M147.76 122.83c0.08,0.09 0.17,0.23 0.25,0.31 0.07,0.1 0.17,0.23 0.24,0.31l2.25 2.19c0.6,0.62 0.37,0.34 0.72,0.88 -1.47,-0.6 -7.35,-4.84 -7.46,-8.04l4 4.35zm23.36 -18.42c0.1,-0.06 0.25,-0.14 0.31,-0.15 0.05,-0.02 0.23,-0.1 0.3,-0.12 1.47,-0.33 1.35,0.55 5.03,-1.87 5.19,-3.4 1.49,-4.04 4.95,-2.93 -1.15,2.33 -6.16,5.77 -8.33,7.11 -1.91,-0.68 -1.46,-0.18 -2.26,-2.04zm-10.89 -5.56c-0.37,-3.54 2.26,-4.98 3.67,-7.39l2.83 1.38c-1.22,3.09 -2.55,5.36 -6.5,6.01zm-34.62 -48.35c2.02,0.24 3.87,1.5 4.79,2.61 0.66,0.78 2.11,3.7 2.4,4.61l-7.19 -7.22zm11.98 16.33c-0.9,-2.3 -2.36,-1.92 -2.67,-4 -0.44,-2.96 1.99,-1.47 3.86,-2.47 1.79,-0.94 1.01,-2.6 2.1,-4.45 1.1,-1.89 0.28,-0.79 1.81,-1.39l2.35 -0.86 -0.54 -5.51 3.25 -0.98c0.87,-0.2 1.65,-0.46 2.29,-0.76 -0.7,-1.45 -2.29,-2.54 -3.65,-3.55 -0.19,-9.75 0.26,-13.45 -11.07,-13.25 -3.76,0.06 -7.85,0.63 -9.14,3.34 -0.87,1.81 -0.44,3.21 -1.81,4.23 -0.86,0.65 -2.67,0.92 -3.77,1.7l2.91 4c0.64,1.6 0.32,4.6 0.21,6.37 -2.38,1.01 -1.5,-0.63 -3.49,1.45l-2.31 2.66c-7.86,7.12 -9.37,16.52 -11.68,26.96 -0.67,3.06 0.03,6.05 0.1,8.84 0.1,3.42 -1.81,3.76 -3.01,6.43 -0.97,2.16 -1.13,5.42 -2.14,7.44l-15.3 2.16c-0.01,2.21 2.57,6.18 3.79,7.9 2.66,3.74 3.28,2.16 3.67,7.84 0.42,5.92 -0.55,5.15 -3.16,8.38 -2.56,3.18 -9.31,9.39 -12.56,10.66 -4.8,1.86 -19.1,-8.3 -26.28,-7.95l-1.51 4.41c-3.38,0.07 -8.48,-1.9 -10.94,-3.44 -3.4,-2.12 -2.88,-5.11 -8.92,-5.51 -5.83,5.32 -3.69,7.75 -3.69,7.75 -1.11,1.99 -2.68,2.73 -4.13,4.94 -1.22,1.86 -2.06,3.19 -3.1,5.17 -0.86,1.63 -1.82,3.85 -2.55,5.76 -1.21,3.19 -1.12,3.71 1.48,4.88 3.94,-1.69 2.99,-5.19 11.83,-9.81 6.43,-3.35 11.56,-2.17 18.24,-0.21l0.22 3.51c9.54,2.21 21.75,8.13 31.08,10.35 7.92,1.88 19.77,-10.52 25.2,-15.56l14.77 -12.41c4.41,1.3 7.11,3.54 10.55,5.58 8.49,5.05 16.59,10.03 23.1,17.17 4.42,4.84 7.52,9.4 10.61,13.11 3.1,3.71 12.38,15.16 13.34,18.61 1.19,4.26 3.14,6.91 7.29,8.74 1.42,-1.79 4,-3.87 4.72,-6.26 1.83,-6.02 1.17,-2.77 4.61,-6.31 1.77,-1.82 8.07,-9.94 7.16,-13.84 -4.06,0.33 -7.7,8.75 -17.46,5.25 0.11,-0.09 0.28,-0.17 0.36,-0.21l2.54 -1.44c-1.2,-3.13 -7.06,-9.3 -9.06,-11.44 -9.3,-9.95 -9.43,-19.21 -14.57,-25.14 -1.75,-2.03 -8.7,-7.35 -11.47,-8.48 6.02,-6.6 1.92,-7.29 -2.17,-11.86l-3.08 1.63 4.08 -6.49 -4.22 -4.82c-1.48,-1.72 -2.6,-3.04 -4.18,-4.65 -2.42,-2.45 -6.34,-7.06 -3.4,-12.09 1.99,0.9 3.19,1.93 5.1,3.23 1.63,1.12 3.5,2.17 5.1,3.17 3.41,2.11 6.85,4.77 10.21,6.48 2.51,-1.36 0.78,-0.64 3.71,-1.41 1.43,-0.38 2.35,-1.04 4.31,-1.16 4.27,5.77 0.16,5.83 5.39,8.24 -0.92,2.13 -0.43,1.24 -3.1,3.4l-9.27 8.24c0.11,6.98 1.29,5.14 4.61,8.88 4.02,4.51 15.96,14.78 20.27,19.22l31.32 -26.35c5.06,-3.95 8.21,-5.42 8.8,-10.38l-25.78 -24.38c-1.05,0.46 -0.49,0.14 -1.46,0.86 -0.03,0.03 -0.8,0.71 -0.88,0.79l-12.46 10.49c-3.78,-1.56 -2.93,-4.17 -8.9,-4.54 -3.61,-0.21 -6.98,-1.02 -9.73,-2.73 -5.6,-3.49 -14.28,-8.99 -19.4,-13.15 -8.96,-7.28 -5.17,-2.9 -8.33,-10.98z"/>
    <path class="fil3" d="M114.34 0c31.58,0 60.16,12.8 80.85,33.49 20.7,20.69 33.5,49.28 33.5,80.85 0,31.58 -12.8,60.16 -33.5,80.85 -20.69,20.7 -49.27,33.5 -80.85,33.5 -31.57,0 -60.16,-12.8 -80.85,-33.5 -20.69,-20.69 -33.49,-49.27 -33.49,-80.85 0,-31.57 12.8,-60.16 33.49,-80.85 20.69,-20.69 49.28,-33.49 80.85,-33.49zm74.22 40.12c-18.99,-18.99 -45.23,-30.74 -74.22,-30.74 -28.98,0 -55.22,11.75 -74.22,30.74 -18.99,19 -30.74,45.24 -30.74,74.22 0,28.99 11.75,55.23 30.74,74.22 19,19 45.24,30.75 74.22,30.75 28.99,0 55.23,-11.75 74.22,-30.75 19,-18.99 30.75,-45.23 30.75,-74.22 0,-28.98 -11.75,-55.22 -30.75,-74.22z"/>
   </g>
   <path class="fil4" d="M116.2 19.52l0 13.97 -3.71 0 0 -13.97 3.71 0zm0 175.67l0 13.97 -3.71 0 0 -13.97 3.71 0zm-47.67 -163.88l6.98 12.08 -3.2 1.84 -6.98 -12.08 3.2 -1.84zm87.85 152.14l6.97 12.09 -3.2 1.84 -6.98 -12.09 3.21 -1.84zm-123.23 -118.12l12.08 6.98 -1.84 3.2 -12.08 -6.98 1.84 -3.2zm152.14 87.84l12.09 6.98 -1.84 3.2 -12.09 -6.97 1.84 -3.21zm-165.77 -40.68l13.97 0 0 3.71 -13.97 0 0 -3.71zm177.86 -43.96l-12.09 6.98 -1.84 -3.2 12.09 -6.98 1.84 3.2zm-152.15 87.85l-12.08 6.97 -1.84 -3.2 12.08 -6.98 1.84 3.21zm118.12 -123.23l-6.97 12.08 -3.21 -1.84 6.98 -12.08 3.2 1.84zm-87.84 152.14l-6.98 12.09 -3.2 -1.84 6.98 -12.09 3.2 1.84z"/>
  </g>
 </g>
</svg>
